<svg width="22" height="27" viewBox="0 0 22 27" fill="none" xmlns="http://www.w3.org/2000/svg">
<path fill-rule="evenodd" clip-rule="evenodd" d="M10.9982 13.8293L18.0688 20.9C18.444 21.2752 18.9529 21.486 19.4835 21.486C20.0141 21.486 20.523 21.2752 20.8982 20.9C21.2734 20.5248 21.4841 20.0159 21.4841 19.4853C21.4841 18.9547 21.2734 18.4459 20.8982 18.0707L13.8248 11L20.8968 3.92933C21.0825 3.74355 21.2298 3.52302 21.3303 3.28032C21.4307 3.03763 21.4824 2.77752 21.4823 2.51486C21.4823 2.25219 21.4305 1.99211 21.3299 1.74946C21.2293 1.50681 21.0819 1.28635 20.8962 1.10066C20.7104 0.914972 20.4899 0.767693 20.2472 0.667232C20.0045 0.566771 19.7444 0.515096 19.4817 0.515158C19.219 0.51522 18.959 0.567017 18.7163 0.667592C18.4737 0.768167 18.2532 0.915551 18.0675 1.10133L10.9982 8.17199L3.9275 1.10133C3.7431 0.910222 3.52248 0.757756 3.27852 0.652824C3.03457 0.547893 2.77215 0.492598 2.5066 0.490166C2.24104 0.487734 1.97766 0.538213 1.73182 0.638659C1.48598 0.739105 1.26261 0.887506 1.07473 1.0752C0.886861 1.2629 0.73825 1.48613 0.637573 1.73188C0.536895 1.97762 0.486167 2.24095 0.488349 2.50651C0.49053 2.77207 0.545577 3.03453 0.650279 3.27859C0.75498 3.52265 0.907239 3.74341 1.09817 3.92799L8.1715 11L1.0995 18.072C0.908572 18.2566 0.756314 18.4773 0.651613 18.7214C0.546911 18.9655 0.491864 19.2279 0.489682 19.4935C0.4875 19.759 0.538228 20.0224 0.638906 20.2681C0.739584 20.5139 0.888195 20.7371 1.07607 20.9248C1.26394 21.1125 1.48731 21.2609 1.73315 21.3613C1.97899 21.4618 2.24237 21.5123 2.50793 21.5098C2.77349 21.5074 3.0359 21.4521 3.27986 21.3472C3.52382 21.2422 3.74443 21.0898 3.92884 20.8987L10.9982 13.8293Z" fill="white"/>
</svg>
