<svg width="22" height="22" viewBox="0 0 22 22" fill="none" xmlns="http://www.w3.org/2000/svg">
<path d="M13.75 14.6665L10.0833 18.3332H17.4167C18.425 18.3332 19.25 17.5082 19.25 16.4999C19.25 15.4915 18.425 14.6665 17.4167 14.6665H13.75ZM11.055 6.59071L3.01583 14.6299C2.85083 14.7949 2.75 15.0332 2.75 15.2715V17.4165C2.75 17.9207 3.1625 18.3332 3.66667 18.3332H5.81167C6.05917 18.3332 6.28833 18.2324 6.4625 18.0674L14.5017 10.0282L11.055 6.59071ZM17.1508 7.36988C17.2358 7.28508 17.3032 7.18434 17.3492 7.07345C17.3952 6.96256 17.4189 6.84368 17.4189 6.72363C17.4189 6.60358 17.3952 6.4847 17.3492 6.37381C17.3032 6.26292 17.2358 6.16218 17.1508 6.07738L15.0058 3.93238C14.921 3.8474 14.8203 3.77998 14.7094 3.73398C14.5985 3.68798 14.4796 3.66431 14.3596 3.66431C14.2395 3.66431 14.1207 3.68798 14.0098 3.73398C13.8989 3.77998 13.7981 3.8474 13.7133 3.93238L12.0358 5.60988L15.4733 9.04738L17.1508 7.36988Z" fill="#E5E5E5"/>
</svg>
