<svg width="22" height="22" viewBox="0 0 22 22" fill="none" xmlns="http://www.w3.org/2000/svg">
<path opacity="0.5" fill-rule="evenodd" clip-rule="evenodd" d="M6.64453 5.73658V5.95841C6.64453 6.14075 6.71696 6.31562 6.8459 6.44455C6.97483 6.57348 7.1497 6.64591 7.33203 6.64591C7.51437 6.64591 7.68924 6.57348 7.81817 6.44455C7.9471 6.31562 8.01953 6.14075 8.01953 5.95841V5.72925H13.9779V5.95841C13.9779 6.14075 14.0503 6.31562 14.1792 6.44455C14.3082 6.57348 14.483 6.64591 14.6654 6.64591C14.8477 6.64591 15.0226 6.57348 15.1515 6.44455C15.2804 6.31562 15.3529 6.14075 15.3529 5.95841V5.73658C15.4543 5.74025 15.5466 5.74544 15.6297 5.75216C15.8937 5.77325 16.0193 5.81175 16.1018 5.85391C16.3181 5.96391 16.4932 6.139 16.6032 6.35533C16.6454 6.43783 16.6839 6.56341 16.7049 6.8265C16.7269 7.09783 16.7279 7.44983 16.7279 7.97508V8.47925H5.26953V7.97508C5.26953 7.45075 5.26953 7.09783 5.29245 6.8265C5.31353 6.56341 5.35203 6.43783 5.3942 6.35533C5.50411 6.13938 5.67966 5.96383 5.89561 5.85391C5.97811 5.81175 6.1037 5.77325 6.36678 5.75216C6.45922 5.74463 6.55183 5.73943 6.64453 5.73658ZM9.6237 6.41675C9.44136 6.41675 9.26649 6.48918 9.13756 6.61811C9.00863 6.74704 8.9362 6.92191 8.9362 7.10425C8.9362 7.28658 9.00863 7.46145 9.13756 7.59038C9.26649 7.71931 9.44136 7.79175 9.6237 7.79175H12.3737C12.556 7.79175 12.7309 7.71931 12.8598 7.59038C12.9888 7.46145 13.0612 7.28658 13.0612 7.10425C13.0612 6.92191 12.9888 6.74704 12.8598 6.61811C12.7309 6.48918 12.556 6.41675 12.3737 6.41675H9.6237Z" fill="#E5E5E5"/>
<path d="M7.79036 12.8334C8.09426 12.8334 8.38571 12.7127 8.60059 12.4978C8.81548 12.2829 8.9362 11.9915 8.9362 11.6876C8.9362 11.3837 8.81548 11.0922 8.60059 10.8774C8.38571 10.6625 8.09426 10.5417 7.79036 10.5417C7.48647 10.5417 7.19502 10.6625 6.98014 10.8774C6.76525 11.0922 6.64453 11.3837 6.64453 11.6876C6.64453 11.9915 6.76525 12.2829 6.98014 12.4978C7.19502 12.7127 7.48647 12.8334 7.79036 12.8334ZM7.79036 16.0417C8.09426 16.0417 8.38571 15.921 8.60059 15.7061C8.81548 15.4913 8.9362 15.1998 8.9362 14.8959C8.9362 14.592 8.81548 14.3006 8.60059 14.0857C8.38571 13.8708 8.09426 13.7501 7.79036 13.7501C7.48647 13.7501 7.19502 13.8708 6.98014 14.0857C6.76525 14.3006 6.64453 14.592 6.64453 14.8959C6.64453 15.1998 6.76525 15.4913 6.98014 15.7061C7.19502 15.921 7.48647 16.0417 7.79036 16.0417ZM12.1445 11.6876C12.1445 11.9915 12.0238 12.2829 11.8089 12.4978C11.594 12.7127 11.3026 12.8334 10.9987 12.8334C10.6948 12.8334 10.4034 12.7127 10.1885 12.4978C9.97359 12.2829 9.85286 11.9915 9.85286 11.6876C9.85286 11.3837 9.97359 11.0922 10.1885 10.8774C10.4034 10.6625 10.6948 10.5417 10.9987 10.5417C11.3026 10.5417 11.594 10.6625 11.8089 10.8774C12.0238 11.0922 12.1445 11.3837 12.1445 11.6876ZM10.9987 16.0417C11.3026 16.0417 11.594 15.921 11.8089 15.7061C12.0238 15.4913 12.1445 15.1998 12.1445 14.8959C12.1445 14.592 12.0238 14.3006 11.8089 14.0857C11.594 13.8708 11.3026 13.7501 10.9987 13.7501C10.6948 13.7501 10.4034 13.8708 10.1885 14.0857C9.97359 14.3006 9.85286 14.592 9.85286 14.8959C9.85286 15.1998 9.97359 15.4913 10.1885 15.7061C10.4034 15.921 10.6948 16.0417 10.9987 16.0417ZM15.3529 11.6876C15.3529 11.9915 15.2321 12.2829 15.0173 12.4978C14.8024 12.7127 14.5109 12.8334 14.207 12.8334C13.9031 12.8334 13.6117 12.7127 13.3968 12.4978C13.1819 12.2829 13.0612 11.9915 13.0612 11.6876C13.0612 11.3837 13.1819 11.0922 13.3968 10.8774C13.6117 10.6625 13.9031 10.5417 14.207 10.5417C14.5109 10.5417 14.8024 10.6625 15.0173 10.8774C15.2321 11.0922 15.3529 11.3837 15.3529 11.6876Z" fill="#E5E5E5"/>
<path fill-rule="evenodd" clip-rule="evenodd" d="M7.33203 2.97925C7.51437 2.97925 7.68924 3.05168 7.81817 3.18061C7.9471 3.30954 8.01953 3.48441 8.01953 3.66675V4.35425H13.9779V3.66675C13.9779 3.48441 14.0503 3.30954 14.1792 3.18061C14.3082 3.05168 14.483 2.97925 14.6654 2.97925C14.8477 2.97925 15.0226 3.05168 15.1515 3.18061C15.2804 3.30954 15.3529 3.48441 15.3529 3.66675V4.36158C15.4922 4.36525 15.6221 4.37197 15.7424 4.38175C16.0908 4.40925 16.4171 4.47158 16.726 4.62925C17.2005 4.87095 17.5862 5.25666 17.8279 5.73108C17.9855 6.04 18.0479 6.36633 18.0754 6.71466C18.1029 7.04925 18.1029 7.45716 18.1029 7.94758V14.9692C18.1029 15.4597 18.1029 15.8676 18.0754 16.2022C18.0479 16.5505 17.9855 16.8768 17.8279 17.1857C17.5864 17.66 17.201 18.0457 16.7269 18.2876C16.4171 18.4452 16.0908 18.5076 15.7424 18.5351C15.4079 18.5626 14.9999 18.5626 14.5104 18.5626H7.48786C6.99745 18.5626 6.58953 18.5626 6.25495 18.5351C5.90661 18.5076 5.58028 18.4452 5.27136 18.2876C4.79722 18.0464 4.41154 17.6613 4.16953 17.1876C4.01186 16.8777 3.94953 16.5514 3.92203 16.2031C3.89453 15.8685 3.89453 15.4606 3.89453 14.9711V7.94758C3.89453 7.45716 3.89453 7.04925 3.92203 6.71466C3.94953 6.36633 4.01186 6.04 4.16953 5.73108C4.41123 5.25666 4.79694 4.87095 5.27136 4.62925C5.58028 4.47158 5.90661 4.40925 6.25495 4.38175C6.37534 4.37197 6.5052 4.36525 6.64453 4.36158V3.66675C6.64453 3.57646 6.66231 3.48706 6.69686 3.40365C6.73141 3.32024 6.78206 3.24445 6.8459 3.18061C6.90974 3.11677 6.98553 3.06613 7.06894 3.03158C7.15235 2.99703 7.24175 2.97925 7.33203 2.97925ZM6.64453 5.95841V5.73658C6.55183 5.73943 6.45922 5.74463 6.36678 5.75216C6.1037 5.77325 5.97811 5.81175 5.89561 5.85391C5.67966 5.96383 5.50411 6.13938 5.3942 6.35533C5.35203 6.43783 5.31353 6.56341 5.29245 6.8265C5.27045 7.09783 5.26953 7.44983 5.26953 7.97508V8.47925H16.7279V7.97508C16.7279 7.45075 16.7279 7.09783 16.7049 6.8265C16.6839 6.56341 16.6454 6.43783 16.6032 6.35533C16.4933 6.13938 16.3177 5.96383 16.1018 5.85391C16.0193 5.81175 15.8937 5.77325 15.6297 5.75216C15.5376 5.74464 15.4453 5.73945 15.3529 5.73658V5.95841C15.3529 6.14075 15.2804 6.31562 15.1515 6.44455C15.0226 6.57348 14.8477 6.64591 14.6654 6.64591C14.483 6.64591 14.3082 6.57348 14.1792 6.44455C14.0503 6.31562 13.9779 6.14075 13.9779 5.95841V5.72925H8.01953V5.95841C8.01953 6.14075 7.9471 6.31562 7.81817 6.44455C7.68924 6.57348 7.51437 6.64591 7.33203 6.64591C7.14969 6.64591 6.97483 6.57348 6.8459 6.44455C6.71696 6.31562 6.64453 6.14075 6.64453 5.95841ZM16.7279 9.39591H5.26953V14.9417C5.26953 15.4661 5.26953 15.819 5.29245 16.0894C5.31353 16.3534 5.35203 16.479 5.3942 16.5615C5.5042 16.7778 5.67928 16.9529 5.89561 17.0629C5.97811 17.1051 6.1037 17.1436 6.36678 17.1647C6.63811 17.1867 6.99011 17.1876 7.51536 17.1876H14.482C15.0064 17.1876 15.3593 17.1876 15.6297 17.1647C15.8937 17.1436 16.0193 17.1051 16.1018 17.0629C16.3177 16.953 16.4933 16.7775 16.6032 16.5615C16.6454 16.479 16.6839 16.3534 16.7049 16.0894C16.7269 15.819 16.7279 15.4661 16.7279 14.9417V9.39591Z" fill="#E5E5E5"/>
</svg>
